<?xml version="1.0" encoding="UTF-8"?>
<svg id="Calque_2" data-name="Calque 2" xmlns="http://www.w3.org/2000/svg" viewBox="0 0 65.54 11.85">
  <defs>
    <style>
      .cls-1 {
        fill: #1d1d1b;
      }
    </style>
  </defs>
  <g id="Calque_1-2" data-name="Calque 1">
    <g>
      <path class="cls-1" d="M3.73,10.64c-.43,.1-.8,.11-1.13,.03s-.59-.23-.8-.45c-.21-.21-.36-.48-.44-.79-.07-.29-.07-.59,0-.92s.24-.64,.49-.94c.25-.31,.6-.58,1.04-.81-.84,.19-1.33-.01-1.49-.62-.08-.34,0-.69,.24-1.07,.2-.3,.51-.58,.93-.84,.37-.22,.84-.4,1.39-.53,.09-.02,.13-.03,.22-.04,.54-.09,.95,.04,1.23,.41,.09,.13,.16,.28,.19,.43,0,.02,.01,.08,.03,.18,.02,.1,0,.25-.09,.41-.07,.14-.28,.26-.59,.36-.06,.01-.08,.02-.14,.04-.27,.06-.53,.06-.8,0,.2-.11,.36-.27,.5-.5,.14-.22,.22-.43,.25-.61,0-.07,0-.12,0-.16-.02-.08-.07-.12-.15-.12-.03,0-.05,.01-.08,.02-.25,.06-.48,.18-.71,.37-.22,.19-.41,.42-.55,.67-.2,.36-.27,.64-.22,.84,.03,.13,.13,.22,.28,.26,.16,.04,.36,.05,.58,0,.25-.05,.44-.11,.55-.16,.01,.24,.02,.36,.03,.61-.51,.3-.91,.66-1.19,1.08s-.45,.84-.5,1.24c-.04,.26-.03,.48,.02,.68,.03,.11,.09,.24,.19,.4s.33,.21,.65,.13c.22-.05,.42-.23,.58-.5,.16-.27,.26-.59,.31-.95,.04-.29,.03-.57-.03-.83-.02-.07-.04-.14-.06-.2,.31-.06,.57,0,.79,.21,.22,.2,.37,.43,.41,.67,.07,.38,0,.73-.19,1-.19,.27-.45,.49-.77,.65-.32,.16-.65,.28-.96,.36Z"/>
      <path class="cls-1" d="M7.01,9.08c-.07,.02-.17,.01-.29,0-.12-.02-.22-.07-.3-.14-.25-.27-.41-.6-.5-.99,0-.03-.03-.15-.07-.37-.04-.22-.05-.54-.02-.96,.03-.42,.07-.78,.14-1.06,.05-.19,.18-.33,.38-.42,.09-.03,.18-.06,.28-.08,.13-.03,.28-.04,.47-.04,.19,0,.37,.04,.54,.1-.11,.21-.24,.57-.39,1.1-.14,.53-.2,1.1-.18,1.73,0-.01,0-.02,.01-.03,.18-.6,.39-1.17,.63-1.7,.42-.96,.86-1.53,1.28-1.71,.04-.01,.06-.02,.1-.03,.21-.04,.41,0,.59,.12,.14,.09,.23,.2,.25,.34,.01,.08,0,.16-.01,.25-.11,.36-.21,.75-.29,1.16-.08,.42-.13,.78-.14,1.08,0,.12,0,.22,.01,.3,.02,.13,.07,.18,.15,.17,.23-.04,.47-.41,.74-1.1,.12-.32,.2-.52,.23-.62,.01-.03,.03-.05,.04-.05,.02,0,.03,.02,.04,.06,.03,.32-.03,.66-.16,1.02-.13,.36-.31,.66-.52,.92-.22,.26-.44,.41-.67,.45,0,0-.01,0-.02,0-.33,.03-.59-.07-.75-.3-.12-.17-.21-.39-.26-.66-.02-.08-.04-.24-.06-.47-.02-.23-.01-.56,.04-.98-.28,.58-.58,1.37-.9,2.38-.06,.2-.1,.37-.14,.42-.04,.06-.17,.09-.25,.11Z"/>
      <path class="cls-1" d="M10.11,10.05c-.07,.01-.17,.02-.32,.03-.15,0-.31-.02-.5-.09-.19-.07-.33-.21-.42-.43,.19,.09,.36,.11,.51,.09,.15-.03,.3-.15,.47-.36,.16-.21,.3-.59,.4-1.14s.18-1.12,.22-1.72c.06-.88,.07-1.48,.08-1.75,0-.17,.12-.32,.31-.43,.13-.07,.27-.12,.43-.14,.07-.01,.18-.02,.34-.02s.32,.04,.47,.14c-.05,.29-.11,.65-.16,1.11-.06,.59-.15,1.23-.27,1.9-.11,.67-.29,1.27-.51,1.79-.23,.52-.54,.86-.96,1-.02,0-.06,.02-.1,.02Zm1.56-6.23c-.07,.01-.15,.02-.24,.02-.45,.03-.69-.08-.74-.33-.03-.17,0-.35,.12-.54,.09-.16,.28-.27,.55-.31,.03,0,.05,0,.08-.01,.32-.02,.54,0,.67,.08,.1,.05,.16,.14,.18,.26,0,.03,0,.04,0,.07,.02,.29-.06,.5-.27,.65-.08,.06-.2,.1-.36,.13Z"/>
      <path class="cls-1" d="M13.84,7.73c-.31,.05-.58,0-.79-.17-.31-.24-.51-.62-.6-1.15-.03-.16-.04-.37-.04-.63,0-.26,.06-.56,.18-.89,.12-.33,.29-.61,.53-.85,.24-.23,.53-.39,.88-.45,.45-.07,.82,.02,1.08,.26,.28,.26,.44,.62,.51,1.06,.05,.37,.02,.75-.08,1.16-.1,.4-.3,.76-.58,1.08-.28,.31-.64,.51-1.09,.58Zm.26-.54c.16-.02,.31-.14,.44-.35,.13-.21,.23-.45,.31-.73,.12-.45,.16-.84,.11-1.17-.05-.36-.19-.53-.43-.5-.14,.02-.26,.14-.38,.35-.1,.2-.19,.43-.25,.7-.06,.27-.1,.54-.11,.81,0,.19,0,.36,.02,.49,0,.05,.03,.14,.06,.25,.03,.11,.11,.16,.23,.14Z"/>
      <path class="cls-1" d="M17.8,8.87c-.07,0-.17,.01-.32,.01-.15,0-.31-.04-.5-.12-.19-.08-.32-.23-.39-.46,.18,.1,.35,.14,.5,.12,.13-.02,.28-.11,.45-.29,.17-.18,.32-.51,.46-1,.14-.49,.25-1.02,.33-1.59-.14,.46-.32,.87-.55,1.23s-.49,.57-.76,.59c-.32,.03-.6-.1-.75-.35-.13-.2-.21-.45-.25-.74,0-.07-.02-.22-.04-.45-.01-.23,.01-.55,.08-.97,.07-.42,.15-.8,.26-1.14,.07-.19,.21-.31,.42-.38,.1-.03,.2-.05,.31-.07,.11-.01,.26-.01,.44,0,.18,.02,.35,.06,.51,.14-.1,.17-.21,.43-.32,.78s-.21,.71-.3,1.1c-.08,.38-.13,.71-.14,.99,0,.1,0,.17,0,.24,.02,.14,.06,.2,.13,.2,.14-.02,.29-.19,.45-.52,.16-.33,.31-.7,.44-1.12s.21-.75,.24-.99c.02-.18,.03-.37,.05-.54,.02-.17,.15-.32,.35-.41,.13-.06,.28-.1,.44-.12,.07,0,.18,0,.34,0,.16,0,.31,.06,.46,.17-.07,.29-.15,.67-.23,1.13-.1,.59-.24,1.21-.39,1.87s-.36,1.24-.62,1.74c-.26,.5-.59,.81-1.01,.93-.02,0-.06,.01-.1,.02Z"/>
      <path class="cls-1" d="M24.53,8.24c-.07,0-.17,0-.32,0-.14,0-.31-.06-.49-.14-.18-.09-.3-.25-.37-.48,.18,.11,.34,.16,.49,.15,.13,0,.29-.1,.47-.26,.18-.17,.35-.49,.52-.97,.17-.48,.31-1,.42-1.57-.16,.46-.37,.85-.62,1.2s-.52,.54-.79,.54c-.32,0-.59-.14-.73-.39-.12-.2-.19-.46-.21-.75,0-.07,0-.22-.01-.45,0-.23,.04-.55,.13-.97,.09-.42,.2-.79,.32-1.13,.08-.18,.23-.3,.44-.36,.1-.03,.21-.04,.31-.05,.12,0,.26,0,.44,.03,.18,.03,.35,.08,.5,.17-.11,.17-.23,.42-.37,.76-.13,.34-.25,.7-.36,1.08-.1,.38-.17,.7-.2,.98,0,.09-.01,.17,0,.24,0,.14,.05,.21,.12,.2,.14,0,.3-.17,.48-.5,.18-.32,.34-.68,.5-1.09s.25-.73,.3-.98c.03-.18,.05-.37,.07-.53,.03-.17,.16-.31,.37-.39,.14-.05,.28-.09,.44-.09,.07,0,.18,0,.34,.02,.16,.01,.31,.08,.45,.19-.09,.29-.19,.66-.29,1.12-.14,.58-.3,1.2-.49,1.85-.19,.65-.43,1.22-.71,1.7s-.63,.78-1.05,.87c-.02,0-.06,0-.1,.01Z"/>
      <path class="cls-1" d="M28.45,6.37c-.32,.01-.57-.08-.77-.26-.28-.27-.43-.68-.46-1.21,0-.16,0-.37,.04-.63,.03-.26,.12-.55,.28-.86,.15-.32,.36-.58,.62-.78,.26-.2,.57-.33,.92-.34,.45-.02,.81,.12,1.04,.38,.24,.29,.37,.66,.38,1.11,0,.37-.07,.75-.22,1.14-.15,.39-.38,.72-.7,1-.31,.28-.7,.43-1.14,.45Zm.33-.51c.16,0,.32-.1,.47-.29,.15-.19,.28-.42,.39-.69,.17-.43,.25-.81,.25-1.15,0-.37-.13-.55-.37-.54-.14,0-.28,.1-.41,.3-.13,.18-.24,.41-.33,.67s-.16,.53-.2,.79c-.03,.19-.04,.35-.04,.49,0,.05,.01,.14,.03,.25,.02,.11,.09,.17,.21,.17Z"/>
      <path class="cls-1" d="M33.9,6.38s-.01,0-.02,0c-.35-.04-.58-.19-.69-.46-.09-.2-.13-.44-.13-.71,0-.09,0-.19,.02-.29-.19,.41-.41,.75-.65,1.03-.25,.28-.51,.44-.77,.43-.32-.01-.57-.17-.7-.43-.1-.21-.16-.47-.16-.77,0-.07,0-.22,.02-.45,.01-.23,.08-.55,.19-.96,.11-.41,.25-.78,.39-1.1,.09-.18,.24-.29,.45-.33,.1-.02,.21-.03,.31-.03,.12,0,.26,.02,.44,.05,.18,.04,.34,.1,.49,.2-.12,.16-.26,.41-.42,.74-.15,.33-.29,.68-.42,1.06-.13,.37-.21,.69-.26,.96-.02,.09-.02,.17-.02,.24,0,.14,.04,.2,.1,.2,.26,0,.68-.73,1.3-2.18,.06-.14,.1-.24,.13-.3,.07-.19,.15-.37,.23-.54,.13-.24,.39-.35,.78-.35,.12,0,.26,.02,.44,.06,.18,.04,.34,.11,.48,.22-.13,.15-.27,.39-.44,.72s-.32,.66-.46,1.02c-.14,.36-.24,.67-.3,.93-.02,.1-.03,.18-.03,.24,0,.13,.04,.19,.11,.19,.22,0,.51-.28,.88-.85,.19-.28,.32-.5,.4-.65,.02-.03,.04-.05,.05-.05,.02,0,.04,.02,.04,.07-.04,.32-.16,.64-.36,.97-.2,.32-.43,.59-.69,.8-.26,.21-.51,.32-.75,.31Z"/>
      <path class="cls-1" d="M36.11,6.45c-.07,0-.16-.03-.28-.07-.11-.05-.2-.12-.26-.21-.17-.29-.25-.63-.24-1.04,0-.02,0-.14,.02-.36,.01-.22,.08-.55,.2-.97s.25-.77,.38-1.03c.09-.18,.25-.28,.46-.32,.1-.01,.19-.02,.29-.02,.13,0,.28,.03,.47,.07,.18,.05,.35,.12,.5,.22-.41,.42-.74,1.04-1.01,1.87,.07-.13,.11-.19,.18-.32,.12-.21,.28-.45,.49-.73,.2-.27,.43-.52,.69-.74,.26-.22,.53-.34,.8-.38,.03,0,.04,0,.07,0,.21,0,.36,.1,.43,.27,.06,.14,.09,.31,.08,.5,0,.07-.02,.19-.05,.36-.03,.17-.11,.38-.25,.62-.14,.24-.31,.39-.51,.47-.06,.02-.12,.04-.18,.03-.15,0-.3-.08-.46-.23,.25-.17,.37-.36,.38-.58,0-.16-.05-.26-.17-.27-.1,0-.27,.12-.51,.38-.24,.25-.48,.59-.72,1.02s-.41,.89-.51,1.38c-.1,.04-.19,.05-.28,.05Z"/>
      <path class="cls-1" d="M44.67,6.97c-.07,0-.15-.04-.24-.09-.09-.05-.16-.13-.2-.22-.11-.24-.15-.49-.13-.76,.03-.32,.12-.71,.29-1.17,.02-.06,.04-.12,.06-.19-.39,.47-.8,1.06-1.23,1.78-.13,.21-.22,.4-.28,.44-.06,.04-.19,.04-.28,.04-.07,0-.16-.03-.28-.09-.11-.05-.19-.13-.25-.22-.16-.33-.23-.69-.2-1.09,0-.03,.01-.15,.04-.38s.11-.53,.25-.93,.29-.73,.43-.98c.1-.17,.26-.27,.48-.29,.1,0,.19,0,.29,0,.13,.01,.28,.04,.46,.1,.18,.05,.34,.14,.49,.25-.17,.17-.39,.48-.68,.95-.28,.47-.5,1-.66,1.61,.03-.05,.05-.08,.08-.13,.15-.28,.35-.61,.58-.98,.24-.37,.5-.71,.8-1.01,.3-.3,.61-.49,.94-.57,.1-.02,.2-.03,.29-.02,.23,.02,.47,.14,.7,.35-.17,.16-.41,.47-.7,.93-.29,.46-.51,.99-.67,1.6,0-.01,.01-.02,.02-.03,.06-.09,.19-.27,.39-.54s.44-.57,.73-.9c.28-.33,.58-.61,.89-.85s.59-.37,.86-.4c.04,0,.06,0,.1,0,.21,.02,.39,.12,.53,.29,.11,.13,.15,.27,.14,.41,0,.07-.04,.15-.08,.23-.21,.31-.42,.65-.62,1.02-.2,.37-.35,.71-.46,.99-.04,.12-.07,.21-.08,.29-.02,.13,.02,.2,.09,.21,.12,.01,.27-.05,.44-.2,.24-.21,.55-.57,.93-1.06,.06-.09,.1-.14,.12-.13,.02,0,.03,.03,.02,.07-.07,.31-.22,.62-.45,.92-.23,.3-.49,.54-.77,.73-.28,.18-.54,.26-.78,.23h-.02c-.33-.08-.54-.25-.63-.51-.07-.2-.09-.44-.06-.71,0-.08,.04-.24,.08-.47,.05-.23,.16-.54,.32-.93-.49,.52-1.02,1.19-1.6,2.03-.11,.16-.2,.3-.24,.33-.06,.04-.18,.04-.26,.03Z"/>
      <path class="cls-1" d="M49.97,7.48c-.17-.02-.38-.08-.61-.18-.23-.1-.42-.29-.55-.57-.13-.28-.16-.63-.11-1.02,.03-.22,.09-.47,.19-.73,.1-.26,.25-.52,.45-.77,.2-.25,.44-.44,.72-.57,.28-.13,.58-.18,.91-.13,.29,.04,.51,.14,.69,.3,.17,.16,.28,.35,.32,.56,.03,.13,.03,.25,.01,.38-.01,.09-.04,.17-.07,.26-.16,.37-.38,.61-.64,.71-.23,.09-.45,.12-.66,.09-.02,0-.09-.02-.22-.04s-.21-.08-.26-.17c-.09,.2-.14,.39-.16,.57-.01,.09-.02,.23,0,.41s.12,.32,.35,.43c.04,.02,.08,.03,.13,.04,.12,.02,.27,0,.46-.05,.19-.05,.4-.17,.6-.37,.27-.27,.48-.53,.64-.74,.05-.06,.09-.1,.11-.13,.03-.03,.04-.04,.06-.04,.02,0,.03,.03,.02,.07-.08,.31-.24,.6-.47,.89-.17,.21-.36,.4-.56,.54-.25,.17-.55,.27-.89,.3-.15,.01-.3,0-.44-.01Zm.46-2.14c.23,.03,.42,.01,.58-.05,.21-.09,.35-.25,.38-.48,0-.06,0-.13-.01-.22-.02-.08-.08-.14-.16-.15-.11-.01-.25,.06-.4,.18s-.28,.28-.41,.49c-.05,.06-.09,.13-.12,.21,.06,.01,.09,.02,.14,.03Z"/>
      <path class="cls-1" d="M54.77,8.32s-.01,0-.02,0c-.47-.13-.68-.48-.64-1.04-.2,.21-.4,.36-.61,.46s-.41,.13-.59,.1c-.32-.05-.56-.19-.71-.41-.23-.32-.3-.74-.22-1.27,.02-.15,.08-.35,.16-.59s.23-.5,.44-.77c.21-.27,.47-.48,.76-.63,.3-.15,.62-.19,.96-.14,.53,.09,.8,.38,.79,.85,.07-.1,.1-.14,.17-.24,.12-.16,.29-.24,.51-.24,.11,0,.21,0,.32,.03,.11,.02,.25,.07,.42,.13,.17,.07,.32,.17,.45,.29-.15,.13-.34,.35-.56,.65s-.44,.61-.64,.95c-.21,.34-.36,.64-.47,.89-.04,.1-.06,.18-.08,.25-.02,.12,0,.19,.07,.2,.23,.04,.59-.21,1.08-.76,.23-.25,.37-.42,.44-.5,.03-.03,.04-.04,.06-.04,.02,0,.03,.03,.02,.07-.09,.31-.26,.61-.51,.89-.25,.29-.52,.51-.82,.68s-.56,.23-.79,.18Zm-1.47-.87c.13,.02,.3-.1,.5-.34,.2-.23,.38-.52,.55-.84,.18-.35,.29-.66,.34-.92,.04-.22-.03-.37-.16-.38-.12-.02-.28,.07-.44,.23-.16,.15-.31,.35-.45,.59-.15,.24-.27,.49-.36,.73-.07,.18-.11,.34-.13,.48,0,.05-.02,.14-.02,.25,0,.11,.06,.19,.17,.2Z"/>
      <path class="cls-1" d="M56.92,8.72s-.01,0-.02,0c-.32-.1-.5-.31-.55-.62-.03-.21-.02-.45,.03-.71,.09-.48,.3-1.06,.65-1.73,.36-.71,.76-1.37,1.19-2,.12-.15,.3-.23,.52-.23,.1,0,.2,.01,.3,.03,.12,.03,.27,.08,.44,.15,.17,.08,.32,.18,.45,.3-.12,.11-.34,.37-.65,.79-.31,.42-.63,.89-.95,1.41s-.59,.98-.78,1.39c-.09,.2-.15,.35-.17,.47-.03,.14,0,.22,.07,.24,.12,.02,.27-.03,.46-.16,.26-.19,.6-.52,1.01-.98,.06-.09,.11-.13,.13-.12,.02,0,.03,.03,.02,.07-.09,.31-.27,.6-.52,.88-.25,.28-.53,.5-.83,.66-.3,.16-.56,.22-.79,.17Z"/>
      <path class="cls-1" d="M61.62,10.19s-.02,0-.03,0c-.32-.08-.51-.19-.57-.34-.04-.1-.05-.21-.03-.32,.01-.05,.03-.11,.06-.17,.08-.15,.2-.27,.36-.35,.17-.08,.39-.1,.65-.04,.18,.04,.3,.11,.37,.2s.09,.19,.07,.3c0,.03,0,.05-.01,.09-.02,.08-.06,.17-.1,.25-.07,.13-.17,.25-.31,.32s-.29,.1-.47,.06Zm.8-1.29s-.02,0-.03,0c-.26-.06-.39-.26-.38-.58,0-.16,.03-.34,.08-.53,.16-.69,.65-1.75,1.49-3.17,.08-.14,.12-.2,.19-.34,.27-.32,.64-.42,1.12-.3,.23,.06,.44,.16,.62,.32-1.17,1.42-2.2,2.96-3.08,4.61Z"/>
    </g>
  </g>
</svg>